<?xml version="1.0" standalone="no"?><!DOCTYPE svg PUBLIC "-//W3C//DTD SVG 1.1//EN" "http://www.w3.org/Graphics/SVG/1.1/DTD/svg11.dtd"><svg t="1767618307875" class="icon" viewBox="0 0 1024 1024" version="1.1" xmlns="http://www.w3.org/2000/svg" p-id="1035" xmlns:xlink="http://www.w3.org/1999/xlink" width="200" height="200"><path d="M204.6 66.4h258.1c181.4 0 304.4 63.3 304.4 217.9 0 88.9-47.5 165.5-132.7 193.5v4.9c109.6 20.7 185 92.5 185 214.3 0 174.1-137.5 260.5-337.2 260.5H204.6V66.4zM442 448.7c160.7 0 225.2-58.4 225.2-152.1 0-109.6-74.3-149.7-219.1-149.7H305.7v301.9H442z m24.4 428.5c158.2 0 254.4-57.2 254.4-183.8 0-114.4-92.5-166.8-254.4-166.8H305.7v350.6h160.7z" p-id="1036"></path></svg>